<?xml version="1.0" encoding="utf-8"?>
<!-- Generator: Adobe Illustrator 27.5.0, SVG Export Plug-In . SVG Version: 6.00 Build 0)  -->
<svg version="1.1" xmlns="http://www.w3.org/2000/svg" xmlns:xlink="http://www.w3.org/1999/xlink" x="0px" y="0px"
	 viewBox="0 0 2000 2000" style="enable-background:new 0 0 2000 2000;" xml:space="preserve">
<g id="BACKGROUND">
	<rect style="fill:none;" width="2000" height="2000"/>
</g>
<g id="OBJECTS">
	<g>
		<polygon style="fill:#58595B;" points="2000,295.052 2000,275.767 1971.381,275.767 2000,226.198 2000,187.628 1937.98,295.052 		
			"/>
		<polygon style="fill:#58595B;" points="1755.981,184.792 1695.445,289.643 1717.713,289.643 1755.981,223.362 1795.981,154.08 
			1874.25,289.643 1896.518,289.643 1795.981,115.51 		"/>
		<polygon style="fill:#58595B;" points="1840.846,289.643 1795.981,211.935 1755.981,281.217 1751.115,289.643 1755.981,289.643 		
			"/>
		<polygon style="fill:#58595B;" points="1763.923,134.795 1775.056,115.51 1755.981,115.51 1573.983,115.51 1674.52,289.645 
			1685.655,270.36 1607.386,134.795 1755.981,134.795 		"/>
		<polygon style="fill:#58595B;" points="1828.04,134.795 1984.576,134.795 1906.308,270.36 1917.443,289.645 2000,146.65 
			2000,115.51 1816.906,115.51 		"/>
		<polygon style="fill:#58595B;" points="1844.741,163.722 1889.606,241.432 1934.473,163.722 		"/>
		<polygon style="fill:#58595B;" points="1795.981,96.293 1851.576,0 1829.308,0 1795.981,57.725 1762.655,0 1755.981,0 1740.386,0 
			1755.981,27.012 		"/>
		<polygon style="fill:#58595B;" points="1940.115,0 1984.576,77.01 1828.04,77.01 1816.906,96.293 2000,96.293 2000,65.153 
			1962.383,0 		"/>
		<polygon style="fill:#58595B;" points="1934.473,48.082 1906.713,0 1872.501,0 1844.741,48.082 		"/>
		<polygon style="fill:#58595B;" points="1986.041,0 2000,24.177 2000,0 		"/>
		<polygon style="fill:#58595B;" points="2000,1090.078 2000,1070.793 1971.381,1070.793 2000,1021.225 2000,982.655 
			1937.98,1090.078 		"/>
		<polygon style="fill:#58595B;" points="1755.981,979.818 1695.445,1084.672 1717.713,1084.672 1755.981,1018.388 
			1795.981,949.107 1874.25,1084.672 1896.518,1084.672 1795.981,910.537 		"/>
		<polygon style="fill:#58595B;" points="1840.846,1084.672 1795.981,1006.962 1755.981,1076.243 1751.115,1084.672 
			1755.981,1084.672 		"/>
		<polygon style="fill:#58595B;" points="1763.923,929.822 1775.056,910.537 1755.981,910.537 1573.983,910.537 1674.52,1084.672 
			1685.655,1065.387 1607.386,929.822 1755.981,929.822 		"/>
		<polygon style="fill:#58595B;" points="1828.04,929.822 1984.576,929.822 1906.308,1065.387 1917.443,1084.672 2000,941.678 
			2000,910.537 1816.906,910.537 		"/>
		<polygon style="fill:#58595B;" points="1844.741,958.75 1889.606,1036.458 1934.473,958.75 		"/>
		<polygon style="fill:#58595B;" points="1874.25,717.187 1795.981,852.752 1755.981,783.47 1717.713,717.187 1695.445,717.187 
			1755.981,822.038 1795.981,891.322 1896.518,717.187 		"/>
		<polygon style="fill:#58595B;" points="1763.923,872.037 1755.981,872.037 1607.386,872.037 1685.655,736.472 1674.52,717.187 
			1573.983,891.322 1755.981,891.322 1775.056,891.322 		"/>
		<polygon style="fill:#58595B;" points="1906.308,736.472 1984.576,872.037 1828.04,872.037 1816.906,891.322 2000,891.322 
			2000,860.18 1917.443,717.187 		"/>
		<polygon style="fill:#58595B;" points="1889.606,765.398 1844.741,843.108 1934.473,843.108 		"/>
		<polygon style="fill:#58595B;" points="2000,819.203 2000,780.633 1971.381,731.065 2000,731.065 2000,711.78 1937.98,711.78 		
			"/>
		<polygon style="fill:#58595B;" points="2000,692.565 2000,673.28 1971.381,673.28 2000,623.712 2000,585.142 1937.98,692.565 		
			"/>
		<polygon style="fill:#58595B;" points="1755.981,582.305 1695.445,687.158 1717.713,687.158 1755.981,620.875 1795.981,551.593 
			1874.25,687.158 1896.518,687.158 1795.981,513.023 		"/>
		<polygon style="fill:#58595B;" points="1840.846,687.158 1795.981,609.448 1755.981,678.73 1751.115,687.158 1755.981,687.158 		
			"/>
		<polygon style="fill:#58595B;" points="1763.923,532.308 1775.056,513.023 1755.981,513.023 1573.983,513.023 1674.52,687.158 
			1685.655,667.873 1607.386,532.308 1755.981,532.308 		"/>
		<polygon style="fill:#58595B;" points="1828.04,532.308 1984.576,532.308 1906.308,667.873 1917.443,687.158 2000,544.163 
			2000,513.023 1816.906,513.023 		"/>
		<polygon style="fill:#58595B;" points="1844.741,561.235 1889.606,638.945 1934.473,561.235 		"/>
		<polygon style="fill:#58595B;" points="1874.25,319.673 1795.981,455.238 1755.981,385.955 1717.713,319.673 1695.445,319.673 
			1755.981,424.525 1795.981,493.808 1896.518,319.673 		"/>
		<polygon style="fill:#58595B;" points="1763.923,474.523 1755.981,474.523 1607.386,474.523 1685.655,338.958 1674.52,319.673 
			1573.983,493.808 1755.981,493.808 1775.056,493.808 		"/>
		<polygon style="fill:#58595B;" points="1906.308,338.958 1984.576,474.523 1828.04,474.523 1816.906,493.808 2000,493.808 
			2000,462.667 1917.443,319.673 		"/>
		<polygon style="fill:#58595B;" points="1889.606,367.885 1844.741,445.595 1934.473,445.595 		"/>
		<polygon style="fill:#58595B;" points="2000,421.69 2000,383.12 1971.381,333.552 2000,333.552 2000,314.267 1937.98,314.267 		
			"/>
		<polygon style="fill:#58595B;" points="2000,1885.105 2000,1865.82 1971.381,1865.82 2000,1816.252 2000,1777.682 
			1937.98,1885.105 		"/>
		<polygon style="fill:#58595B;" points="1755.981,1774.845 1695.445,1879.698 1717.713,1879.698 1755.981,1813.415 
			1795.981,1744.133 1874.25,1879.698 1896.518,1879.698 1795.981,1705.563 		"/>
		<polygon style="fill:#58595B;" points="1755.981,1871.27 1751.115,1879.698 1755.981,1879.698 1840.846,1879.698 
			1795.981,1801.988 		"/>
		<polygon style="fill:#58595B;" points="1828.04,1724.848 1984.576,1724.848 1906.308,1860.413 1917.443,1879.698 2000,1736.705 
			2000,1705.563 1816.906,1705.563 		"/>
		<polygon style="fill:#58595B;" points="1844.741,1753.777 1889.606,1831.487 1934.473,1753.777 		"/>
		<polygon style="fill:#58595B;" points="1874.25,1512.213 1795.981,1647.778 1755.981,1578.497 1717.713,1512.213 
			1695.445,1512.213 1755.981,1617.067 1795.981,1686.348 1896.518,1512.213 		"/>
		<polygon style="fill:#58595B;" points="1775.056,1686.348 1763.923,1667.063 1755.981,1667.063 1607.386,1667.063 
			1685.655,1531.498 1674.52,1512.213 1573.983,1686.348 1755.981,1686.348 		"/>
		<polygon style="fill:#58595B;" points="1906.308,1531.498 1984.576,1667.063 1828.04,1667.063 1816.906,1686.348 2000,1686.348 
			2000,1655.207 1917.443,1512.213 		"/>
		<polygon style="fill:#58595B;" points="1889.606,1560.427 1844.741,1638.135 1934.473,1638.135 		"/>
		<polygon style="fill:#58595B;" points="2000,1614.23 2000,1575.66 1971.381,1526.092 2000,1526.092 2000,1506.807 
			1937.98,1506.807 		"/>
		<polygon style="fill:#58595B;" points="2000,1487.592 2000,1468.307 1971.381,1468.307 2000,1418.738 2000,1380.168 
			1937.98,1487.592 		"/>
		<polygon style="fill:#58595B;" points="1755.981,1377.332 1695.445,1482.185 1717.713,1482.185 1755.981,1415.902 
			1795.981,1346.62 1874.25,1482.185 1896.518,1482.185 1795.981,1308.05 		"/>
		<polygon style="fill:#58595B;" points="1840.846,1482.185 1795.981,1404.475 1755.981,1473.757 1751.115,1482.185 
			1755.981,1482.185 		"/>
		<polygon style="fill:#58595B;" points="1763.923,1327.335 1775.056,1308.05 1755.981,1308.05 1573.983,1308.05 1674.52,1482.185 
			1685.655,1462.9 1607.386,1327.335 1755.981,1327.335 		"/>
		<polygon style="fill:#58595B;" points="1828.04,1327.335 1984.576,1327.335 1906.308,1462.9 1917.443,1482.185 2000,1339.192 
			2000,1308.05 1816.906,1308.05 		"/>
		<polygon style="fill:#58595B;" points="1844.741,1356.263 1889.606,1433.972 1934.473,1356.263 		"/>
		<polygon style="fill:#58595B;" points="1874.25,1114.7 1795.981,1250.265 1755.981,1180.983 1717.713,1114.7 1695.445,1114.7 
			1755.981,1219.553 1795.981,1288.835 1896.518,1114.7 		"/>
		<polygon style="fill:#58595B;" points="1763.923,1269.55 1755.981,1269.55 1607.386,1269.55 1685.655,1133.985 1674.52,1114.7 
			1573.983,1288.835 1755.981,1288.835 1775.056,1288.835 		"/>
		<polygon style="fill:#58595B;" points="1906.308,1133.985 1984.576,1269.55 1828.04,1269.55 1816.906,1288.835 2000,1288.835 
			2000,1257.693 1917.443,1114.7 		"/>
		<polygon style="fill:#58595B;" points="1889.606,1162.912 1844.741,1240.622 1934.473,1240.622 		"/>
		<polygon style="fill:#58595B;" points="2000,1216.717 2000,1178.147 1971.381,1128.578 2000,1128.578 2000,1109.293 
			1937.98,1109.293 		"/>
		<polygon style="fill:#58595B;" points="1874.25,1909.727 1822.13,2000 1844.398,2000 1896.518,1909.727 		"/>
		<polygon style="fill:#58595B;" points="1755.981,1909.727 1751.115,1909.727 1755.981,1918.155 1795.981,1987.437 
			1840.846,1909.727 		"/>
		<polygon style="fill:#58595B;" points="1906.308,1929.012 1947.293,2000 1969.561,2000 1917.443,1909.727 		"/>
		<polygon style="fill:#58595B;" points="1865.323,2000 1913.891,2000 1889.606,1957.94 		"/>
		<polygon style="fill:#58595B;" points="1993.22,2000 2000,2000 2000,1973.173 1971.381,1923.605 2000,1923.605 2000,1904.32 
			1937.98,1904.32 		"/>
		<polygon style="fill:#58595B;" points="1747.221,163.722 1657.49,163.722 1702.355,241.432 		"/>
		<polygon style="fill:#58595B;" points="1755.981,96.293 1775.056,96.293 1763.923,77.01 1755.981,77.01 1607.386,77.01 
			1651.848,0 1629.58,0 1573.983,96.293 		"/>
		<polygon style="fill:#58595B;" points="1719.461,0 1685.25,0 1657.49,48.082 1747.221,48.082 		"/>
		<polygon style="fill:#58595B;" points="1331.45,120.917 1431.986,295.052 1532.523,120.917 1510.255,120.917 1431.986,256.482 
			1353.718,120.917 		"/>
		<polygon style="fill:#58595B;" points="1387.12,120.917 1431.986,198.627 1476.851,120.917 		"/>
		<polygon style="fill:#58595B;" points="1209.988,295.052 1411.061,295.052 1399.926,275.767 1243.391,275.767 1321.658,140.202 
			1310.525,120.917 		"/>
		<polygon style="fill:#58595B;" points="1383.226,246.838 1338.36,169.128 1293.495,246.838 		"/>
		<polygon style="fill:#58595B;" points="1542.313,140.202 1620.581,275.767 1464.045,275.767 1452.911,295.052 1653.983,295.052 
			1553.446,120.917 		"/>
		<polygon style="fill:#58595B;" points="1480.746,246.838 1570.478,246.838 1525.611,169.128 		"/>
		<polygon style="fill:#58595B;" points="1027.99,184.792 967.455,289.643 989.723,289.643 1027.99,223.362 1067.99,154.08 
			1146.258,289.643 1168.526,289.643 1067.99,115.51 		"/>
		<polygon style="fill:#58595B;" points="1112.856,289.643 1067.99,211.935 1027.99,281.217 1023.125,289.643 1027.99,289.643 		"/>
		<polygon style="fill:#58595B;" points="1100.05,134.795 1256.586,134.795 1178.318,270.36 1189.451,289.645 1289.988,115.51 
			1088.915,115.51 		"/>
		<polygon style="fill:#58595B;" points="1116.75,163.722 1161.617,241.432 1206.481,163.722 		"/>
		<polygon style="fill:#58595B;" points="1067.99,96.293 1123.586,0 1101.318,0 1067.99,57.725 1034.663,0 1027.99,0 1012.395,0 
			1027.99,27.012 		"/>
		<polygon style="fill:#58595B;" points="1100.05,77.01 1088.915,96.293 1289.988,96.293 1234.393,0 1212.125,0 1256.586,77.01 		
			"/>
		<polygon style="fill:#58595B;" points="1206.481,48.082 1178.721,0 1144.511,0 1116.75,48.082 		"/>
		<polygon style="fill:#58595B;" points="1353.718,90.887 1406.191,0 1383.923,0 1331.45,90.887 		"/>
		<polygon style="fill:#58595B;" points="1532.523,90.887 1480.048,0 1457.78,0 1510.255,90.887 		"/>
		<polygon style="fill:#58595B;" points="1476.851,90.887 1431.986,13.178 1387.12,90.887 		"/>
		<polygon style="fill:#58595B;" points="1321.658,71.603 1280.32,0 1258.051,0 1310.525,90.887 		"/>
		<polygon style="fill:#58595B;" points="1362.998,0 1313.721,0 1338.36,42.675 		"/>
		<polygon style="fill:#58595B;" points="1553.446,90.887 1605.921,0 1583.653,0 1542.313,71.603 		"/>
		<polygon style="fill:#58595B;" points="1550.25,0 1500.973,0 1525.611,42.675 		"/>
		<polygon style="fill:#58595B;" points="1747.221,958.75 1657.49,958.75 1702.355,1036.458 		"/>
		<polygon style="fill:#58595B;" points="1755.981,725.615 1795.981,794.897 1840.846,717.187 1755.981,717.187 1751.115,717.187 		
			"/>
		<polygon style="fill:#58595B;" points="1657.49,843.108 1747.221,843.108 1702.355,765.398 		"/>
		<polygon style="fill:#58595B;" points="1510.255,915.943 1431.986,1051.508 1353.718,915.943 1331.45,915.943 1431.986,1090.078 
			1532.523,915.943 		"/>
		<polygon style="fill:#58595B;" points="1431.986,993.653 1476.851,915.943 1387.12,915.943 		"/>
		<polygon style="fill:#58595B;" points="1399.926,1070.793 1243.391,1070.793 1321.658,935.228 1310.525,915.943 
			1209.988,1090.078 1411.061,1090.078 		"/>
		<polygon style="fill:#58595B;" points="1293.495,1041.865 1383.226,1041.865 1338.36,964.155 		"/>
		<polygon style="fill:#58595B;" points="1553.446,915.943 1542.313,935.228 1620.581,1070.793 1464.045,1070.793 
			1452.911,1090.078 1653.983,1090.078 		"/>
		<polygon style="fill:#58595B;" points="1525.611,964.155 1480.746,1041.865 1570.478,1041.865 		"/>
		<polygon style="fill:#58595B;" points="1168.526,1084.672 1067.99,910.537 1027.99,979.818 967.455,1084.672 989.723,1084.672 
			1027.99,1018.388 1067.99,949.107 1146.258,1084.672 		"/>
		<polygon style="fill:#58595B;" points="1067.99,1006.962 1027.99,1076.243 1023.125,1084.672 1027.99,1084.672 1112.856,1084.672 
					"/>
		<polygon style="fill:#58595B;" points="1289.988,910.537 1088.915,910.537 1100.05,929.822 1256.586,929.822 1178.318,1065.387 
			1189.451,1084.672 		"/>
		<polygon style="fill:#58595B;" points="1116.75,958.75 1161.617,1036.458 1206.481,958.75 		"/>
		<polygon style="fill:#58595B;" points="1178.318,736.472 1256.586,872.037 1100.05,872.037 1088.915,891.322 1289.988,891.322 
			1189.451,717.187 		"/>
		<polygon style="fill:#58595B;" points="1116.75,843.108 1206.481,843.108 1161.617,765.398 		"/>
		<polygon style="fill:#58595B;" points="1747.221,561.235 1657.49,561.235 1702.355,638.945 		"/>
		<polygon style="fill:#58595B;" points="1755.981,328.102 1795.981,397.383 1840.846,319.673 1755.981,319.673 1751.115,319.673 		
			"/>
		<polygon style="fill:#58595B;" points="1657.49,445.595 1747.221,445.595 1702.355,367.885 		"/>
		<polygon style="fill:#58595B;" points="1331.45,885.915 1353.718,885.915 1431.986,750.35 1510.255,885.915 1532.523,885.915 
			1431.986,711.78 		"/>
		<polygon style="fill:#58595B;" points="1431.986,808.205 1387.12,885.915 1476.851,885.915 		"/>
		<polygon style="fill:#58595B;" points="1411.061,711.78 1209.988,711.78 1310.525,885.915 1321.658,866.63 1243.391,731.065 
			1399.926,731.065 		"/>
		<polygon style="fill:#58595B;" points="1383.226,759.992 1293.495,759.992 1338.36,837.702 		"/>
		<polygon style="fill:#58595B;" points="1452.911,711.78 1464.045,731.065 1620.581,731.065 1542.313,866.63 1553.446,885.915 
			1653.983,711.78 		"/>
		<polygon style="fill:#58595B;" points="1480.746,759.992 1525.611,837.702 1570.478,759.992 		"/>
		<polygon style="fill:#58595B;" points="1331.45,518.43 1431.986,692.565 1532.523,518.43 1510.255,518.43 1431.986,653.995 
			1353.718,518.43 		"/>
		<polygon style="fill:#58595B;" points="1431.986,596.14 1476.851,518.43 1387.12,518.43 		"/>
		<polygon style="fill:#58595B;" points="1209.988,692.565 1411.061,692.565 1399.926,673.28 1243.391,673.28 1321.658,537.715 
			1310.525,518.43 		"/>
		<polygon style="fill:#58595B;" points="1383.226,644.352 1338.36,566.642 1293.495,644.352 		"/>
		<polygon style="fill:#58595B;" points="1553.446,518.43 1542.313,537.715 1620.581,673.28 1464.045,673.28 1452.911,692.565 
			1653.983,692.565 		"/>
		<polygon style="fill:#58595B;" points="1570.478,644.352 1525.611,566.642 1480.746,644.352 		"/>
		<polygon style="fill:#58595B;" points="1027.99,582.305 967.455,687.158 989.723,687.158 1027.99,620.875 1067.99,551.593 
			1146.258,687.158 1168.526,687.158 1067.99,513.023 		"/>
		<polygon style="fill:#58595B;" points="1112.856,687.158 1067.99,609.448 1027.99,678.73 1023.125,687.158 1027.99,687.158 		"/>
		<polygon style="fill:#58595B;" points="1100.05,532.308 1256.586,532.308 1178.318,667.873 1189.451,687.158 1289.988,513.023 
			1088.915,513.023 		"/>
		<polygon style="fill:#58595B;" points="1116.75,561.235 1161.617,638.945 1206.481,561.235 		"/>
		<polygon style="fill:#58595B;" points="1178.318,338.958 1256.586,474.523 1100.05,474.523 1088.915,493.808 1289.988,493.808 
			1189.451,319.673 		"/>
		<polygon style="fill:#58595B;" points="1116.75,445.595 1206.481,445.595 1161.617,367.885 		"/>
		<polygon style="fill:#58595B;" points="1331.45,488.402 1353.718,488.402 1431.986,352.837 1510.255,488.402 1532.523,488.402 
			1431.986,314.267 		"/>
		<polygon style="fill:#58595B;" points="1431.986,410.692 1387.12,488.402 1476.851,488.402 		"/>
		<polygon style="fill:#58595B;" points="1310.525,488.402 1321.658,469.117 1243.391,333.552 1399.926,333.552 1411.061,314.267 
			1209.988,314.267 		"/>
		<polygon style="fill:#58595B;" points="1383.226,362.478 1293.495,362.478 1338.36,440.188 		"/>
		<polygon style="fill:#58595B;" points="1452.911,314.267 1464.045,333.552 1620.581,333.552 1542.313,469.117 1553.446,488.402 
			1653.983,314.267 		"/>
		<polygon style="fill:#58595B;" points="1480.746,362.478 1525.611,440.188 1570.478,362.478 		"/>
		<polygon style="fill:#58595B;" points="1685.655,1860.413 1607.386,1724.848 1755.981,1724.848 1763.923,1724.848 
			1775.056,1705.563 1755.981,1705.563 1573.983,1705.563 1674.52,1879.698 		"/>
		<polygon style="fill:#58595B;" points="1747.221,1753.777 1657.49,1753.777 1702.355,1831.487 		"/>
		<polygon style="fill:#58595B;" points="1755.981,1520.642 1795.981,1589.923 1840.846,1512.213 1755.981,1512.213 
			1751.115,1512.213 		"/>
		<polygon style="fill:#58595B;" points="1657.49,1638.135 1747.221,1638.135 1702.355,1560.427 		"/>
		<polygon style="fill:#58595B;" points="1532.523,1710.97 1510.255,1710.97 1431.986,1846.535 1353.718,1710.97 1331.45,1710.97 
			1431.986,1885.105 		"/>
		<polygon style="fill:#58595B;" points="1431.986,1788.68 1476.851,1710.97 1387.12,1710.97 		"/>
		<polygon style="fill:#58595B;" points="1399.926,1865.82 1243.391,1865.82 1321.658,1730.255 1310.525,1710.97 1209.988,1885.105 
			1411.061,1885.105 		"/>
		<polygon style="fill:#58595B;" points="1383.226,1836.892 1338.36,1759.183 1293.495,1836.892 		"/>
		<polygon style="fill:#58595B;" points="1553.446,1710.97 1542.313,1730.255 1620.581,1865.82 1464.045,1865.82 1452.911,1885.105 
			1653.983,1885.105 		"/>
		<polygon style="fill:#58595B;" points="1480.746,1836.892 1570.478,1836.892 1525.611,1759.183 		"/>
		<polygon style="fill:#58595B;" points="1168.526,1879.698 1067.99,1705.563 1027.99,1774.845 967.455,1879.698 989.723,1879.698 
			1027.99,1813.415 1067.99,1744.133 1146.258,1879.698 		"/>
		<polygon style="fill:#58595B;" points="1027.99,1871.27 1023.125,1879.698 1027.99,1879.698 1112.856,1879.698 1067.99,1801.988 
					"/>
		<polygon style="fill:#58595B;" points="1289.988,1705.563 1088.915,1705.563 1100.05,1724.848 1256.586,1724.848 
			1178.318,1860.413 1189.451,1879.698 		"/>
		<polygon style="fill:#58595B;" points="1116.75,1753.777 1161.617,1831.487 1206.481,1753.777 		"/>
		<polygon style="fill:#58595B;" points="1168.526,1512.213 1146.258,1512.213 1067.99,1647.778 1027.99,1578.497 989.723,1512.213 
			967.455,1512.213 1027.99,1617.067 1067.99,1686.348 		"/>
		<polygon style="fill:#58595B;" points="1047.067,1686.348 1035.931,1667.063 1027.99,1667.063 879.395,1667.063 957.663,1531.498 
			946.53,1512.213 845.993,1686.348 1027.99,1686.348 		"/>
		<polygon style="fill:#58595B;" points="1189.451,1512.213 1178.318,1531.498 1256.586,1667.063 1100.05,1667.063 
			1088.915,1686.348 1289.988,1686.348 		"/>
		<polygon style="fill:#58595B;" points="1116.75,1638.135 1206.481,1638.135 1161.617,1560.427 		"/>
		<polygon style="fill:#58595B;" points="1747.221,1356.263 1657.49,1356.263 1702.355,1433.972 		"/>
		<polygon style="fill:#58595B;" points="1755.981,1123.128 1795.981,1192.41 1840.846,1114.7 1755.981,1114.7 1751.115,1114.7 		
			"/>
		<polygon style="fill:#58595B;" points="1657.49,1240.622 1747.221,1240.622 1702.355,1162.912 		"/>
		<polygon style="fill:#58595B;" points="1532.523,1680.942 1431.986,1506.807 1331.45,1680.942 1353.718,1680.942 
			1431.986,1545.377 1510.255,1680.942 		"/>
		<polygon style="fill:#58595B;" points="1431.986,1603.232 1387.12,1680.942 1476.851,1680.942 		"/>
		<polygon style="fill:#58595B;" points="1321.658,1661.657 1243.391,1526.092 1399.926,1526.092 1411.061,1506.807 
			1209.988,1506.807 1310.525,1680.942 		"/>
		<polygon style="fill:#58595B;" points="1383.226,1555.02 1293.495,1555.02 1338.36,1632.73 		"/>
		<polygon style="fill:#58595B;" points="1653.983,1506.807 1452.911,1506.807 1464.045,1526.092 1620.581,1526.092 
			1542.313,1661.657 1553.446,1680.942 		"/>
		<polygon style="fill:#58595B;" points="1480.746,1555.02 1525.611,1632.73 1570.478,1555.02 		"/>
		<polygon style="fill:#58595B;" points="1532.523,1313.457 1510.255,1313.457 1431.986,1449.022 1353.718,1313.457 
			1331.45,1313.457 1431.986,1487.592 		"/>
		<polygon style="fill:#58595B;" points="1431.986,1391.167 1476.851,1313.457 1387.12,1313.457 		"/>
		<polygon style="fill:#58595B;" points="1399.926,1468.307 1243.391,1468.307 1321.658,1332.742 1310.525,1313.457 
			1209.988,1487.592 1411.061,1487.592 		"/>
		<polygon style="fill:#58595B;" points="1383.226,1439.378 1338.36,1361.67 1293.495,1439.378 		"/>
		<polygon style="fill:#58595B;" points="1553.446,1313.457 1542.313,1332.742 1620.581,1468.307 1464.045,1468.307 
			1452.911,1487.592 1653.983,1487.592 		"/>
		<polygon style="fill:#58595B;" points="1480.746,1439.378 1570.478,1439.378 1525.611,1361.67 		"/>
		<polygon style="fill:#58595B;" points="1168.526,1482.185 1067.99,1308.05 1027.99,1377.332 967.455,1482.185 989.723,1482.185 
			1027.99,1415.902 1067.99,1346.62 1146.258,1482.185 		"/>
		<polygon style="fill:#58595B;" points="1067.99,1404.475 1027.99,1473.757 1023.125,1482.185 1027.99,1482.185 1112.856,1482.185 
					"/>
		<polygon style="fill:#58595B;" points="1289.988,1308.05 1088.915,1308.05 1100.05,1327.335 1256.586,1327.335 1178.318,1462.9 
			1189.451,1482.185 		"/>
		<polygon style="fill:#58595B;" points="1116.75,1356.263 1161.617,1433.972 1206.481,1356.263 		"/>
		<polygon style="fill:#58595B;" points="1168.526,1114.7 1146.258,1114.7 1067.99,1250.265 1027.99,1180.983 989.723,1114.7 
			967.455,1114.7 1027.99,1219.553 1067.99,1288.835 		"/>
		<polygon style="fill:#58595B;" points="1047.067,1288.835 1035.931,1269.55 1027.99,1269.55 879.395,1269.55 957.663,1133.985 
			946.53,1114.7 845.993,1288.835 1027.99,1288.835 		"/>
		<polygon style="fill:#58595B;" points="1189.451,1114.7 1178.318,1133.985 1256.586,1269.55 1100.05,1269.55 1088.915,1288.835 
			1289.988,1288.835 		"/>
		<polygon style="fill:#58595B;" points="1116.75,1240.622 1206.481,1240.622 1161.617,1162.912 		"/>
		<polygon style="fill:#58595B;" points="1331.45,1283.428 1353.718,1283.428 1431.986,1147.863 1510.255,1283.428 
			1532.523,1283.428 1431.986,1109.293 		"/>
		<polygon style="fill:#58595B;" points="1431.986,1205.718 1387.12,1283.428 1476.851,1283.428 		"/>
		<polygon style="fill:#58595B;" points="1321.658,1264.143 1243.391,1128.578 1399.926,1128.578 1411.061,1109.293 
			1209.988,1109.293 1310.525,1283.428 		"/>
		<polygon style="fill:#58595B;" points="1383.226,1157.507 1293.495,1157.507 1338.36,1235.215 		"/>
		<polygon style="fill:#58595B;" points="1452.911,1109.293 1464.045,1128.578 1620.581,1128.578 1542.313,1264.143 
			1553.446,1283.428 1653.983,1109.293 		"/>
		<polygon style="fill:#58595B;" points="1480.746,1157.507 1525.611,1235.215 1570.478,1157.507 		"/>
		<polygon style="fill:#58595B;" points="1717.713,1909.727 1695.445,1909.727 1747.563,2000 1755.981,2000 1769.831,2000 
			1755.981,1976.01 		"/>
		<polygon style="fill:#58595B;" points="1674.52,1909.727 1622.401,2000 1644.67,2000 1685.655,1929.012 		"/>
		<polygon style="fill:#58595B;" points="1678.071,2000 1726.64,2000 1702.355,1957.94 		"/>
		<polygon style="fill:#58595B;" points="1146.258,1909.727 1094.14,2000 1116.408,2000 1168.526,1909.727 		"/>
		<polygon style="fill:#58595B;" points="1027.99,1909.727 1023.125,1909.727 1027.99,1918.155 1067.99,1987.437 1112.856,1909.727 
					"/>
		<polygon style="fill:#58595B;" points="1178.318,1929.012 1219.303,2000 1241.571,2000 1189.451,1909.727 		"/>
		<polygon style="fill:#58595B;" points="1137.333,2000 1185.9,2000 1161.617,1957.94 		"/>
		<polygon style="fill:#58595B;" points="1376.745,2000 1399.013,2000 1431.986,1942.89 1464.958,2000 1487.226,2000 
			1431.986,1904.32 		"/>
		<polygon style="fill:#58595B;" points="1399.926,1923.605 1411.061,1904.32 1209.988,1904.32 1265.228,2000 1287.496,2000 
			1243.391,1923.605 		"/>
		<polygon style="fill:#58595B;" points="1293.495,1952.533 1320.9,2000 1355.82,2000 1383.226,1952.533 		"/>
		<polygon style="fill:#58595B;" points="1452.911,1904.32 1464.045,1923.605 1620.581,1923.605 1576.475,2000 1598.743,2000 
			1653.983,1904.32 		"/>
		<polygon style="fill:#58595B;" points="1508.151,2000 1543.073,2000 1570.478,1952.533 1480.746,1952.533 		"/>
		<polygon style="fill:#58595B;" points="845.993,115.51 946.53,289.645 957.663,270.36 879.395,134.795 1027.99,134.795 
			1035.931,134.795 1047.067,115.51 1027.99,115.51 		"/>
		<polygon style="fill:#58595B;" points="1019.23,163.722 929.498,163.722 974.365,241.432 		"/>
		<polygon style="fill:#58595B;" points="1027.99,96.293 1047.067,96.293 1035.931,77.01 1027.99,77.01 879.395,77.01 923.856,0 
			901.588,0 845.993,96.293 		"/>
		<polygon style="fill:#58595B;" points="991.47,0 957.26,0 929.498,48.082 1019.23,48.082 		"/>
		<polygon style="fill:#58595B;" points="603.458,120.917 703.995,295.052 804.531,120.917 782.263,120.917 703.995,256.482 
			625.726,120.917 		"/>
		<polygon style="fill:#58595B;" points="748.861,120.917 659.13,120.917 703.995,198.627 		"/>
		<polygon style="fill:#58595B;" points="481.998,295.052 683.07,295.052 671.936,275.767 515.4,275.767 593.668,140.202 
			582.535,120.917 		"/>
		<polygon style="fill:#58595B;" points="655.235,246.838 610.37,169.128 565.503,246.838 		"/>
		<polygon style="fill:#58595B;" points="814.321,140.202 892.59,275.767 736.055,275.767 724.92,295.052 925.993,295.052 
			825.456,120.917 		"/>
		<polygon style="fill:#58595B;" points="752.755,246.838 842.486,246.838 797.621,169.128 		"/>
		<polygon style="fill:#58595B;" points="300,184.792 239.463,289.643 261.731,289.643 300,223.362 340,154.08 418.268,289.643 
			440.536,289.643 340,115.51 		"/>
		<polygon style="fill:#58595B;" points="384.865,289.643 340,211.935 300,281.217 295.135,289.643 300,289.643 		"/>
		<polygon style="fill:#58595B;" points="372.058,134.795 528.595,134.795 450.326,270.36 461.461,289.645 561.998,115.51 
			360.925,115.51 		"/>
		<polygon style="fill:#58595B;" points="388.76,163.722 433.625,241.432 478.491,163.722 		"/>
		<polygon style="fill:#58595B;" points="340,96.293 395.595,0 373.326,0 340,57.725 306.673,0 300,0 284.405,0 300,27.012 		"/>
		<polygon style="fill:#58595B;" points="372.058,77.01 360.925,96.293 561.998,96.293 506.401,0 484.133,0 528.595,77.01 		"/>
		<polygon style="fill:#58595B;" points="478.491,48.082 450.731,0 416.52,0 388.76,48.082 		"/>
		<polygon style="fill:#58595B;" points="625.726,90.887 678.201,0 655.933,0 603.458,90.887 		"/>
		<polygon style="fill:#58595B;" points="804.531,90.887 752.058,0 729.79,0 782.263,90.887 		"/>
		<polygon style="fill:#58595B;" points="748.861,90.887 703.995,13.178 659.13,90.887 		"/>
		<polygon style="fill:#58595B;" points="593.668,71.603 552.328,0 530.06,0 582.535,90.887 		"/>
		<polygon style="fill:#58595B;" points="635.008,0 585.731,0 610.37,42.675 		"/>
		<polygon style="fill:#58595B;" points="825.456,90.887 877.93,0 855.661,0 814.321,71.603 		"/>
		<polygon style="fill:#58595B;" points="822.26,0 772.983,0 797.621,42.675 		"/>
		<polygon style="fill:#58595B;" points="957.663,1065.387 879.395,929.822 1027.99,929.822 1035.931,929.822 1047.067,910.537 
			1027.99,910.537 845.993,910.537 946.53,1084.672 		"/>
		<polygon style="fill:#58595B;" points="1019.23,958.75 929.498,958.75 974.365,1036.458 		"/>
		<polygon style="fill:#58595B;" points="967.455,717.187 1027.99,822.038 1067.99,891.322 1168.526,717.187 1146.258,717.187 
			1067.99,852.752 1027.99,783.468 989.723,717.187 		"/>
		<polygon style="fill:#58595B;" points="1027.99,725.615 1067.99,794.897 1112.856,717.187 1027.99,717.187 1023.125,717.187 		"/>
		<polygon style="fill:#58595B;" points="845.993,891.322 1027.99,891.322 1047.067,891.322 1035.931,872.037 1027.99,872.037 
			879.395,872.037 957.663,736.472 946.53,717.187 		"/>
		<polygon style="fill:#58595B;" points="1019.23,843.108 974.365,765.398 929.498,843.108 		"/>
		<polygon style="fill:#58595B;" points="804.531,915.943 782.263,915.943 703.995,1051.508 625.726,915.943 603.458,915.943 
			703.995,1090.078 		"/>
		<polygon style="fill:#58595B;" points="703.995,993.653 748.861,915.943 659.13,915.943 		"/>
		<polygon style="fill:#58595B;" points="683.07,1090.078 671.936,1070.793 515.4,1070.793 593.668,935.228 582.535,915.943 
			481.998,1090.078 		"/>
		<polygon style="fill:#58595B;" points="655.235,1041.865 610.37,964.155 565.503,1041.865 		"/>
		<polygon style="fill:#58595B;" points="825.456,915.943 814.321,935.228 892.59,1070.793 736.055,1070.793 724.92,1090.078 
			925.993,1090.078 		"/>
		<polygon style="fill:#58595B;" points="842.486,1041.865 797.621,964.155 752.755,1041.865 		"/>
		<polygon style="fill:#58595B;" points="340,1006.962 300,1076.243 295.135,1084.672 300,1084.672 384.865,1084.672 		"/>
		<polygon style="fill:#58595B;" points="372.058,929.822 528.595,929.822 450.326,1065.387 461.461,1084.672 561.998,910.537 
			360.925,910.537 		"/>
		<polygon style="fill:#58595B;" points="478.491,958.75 388.76,958.75 433.625,1036.458 		"/>
		<polygon style="fill:#58595B;" points="340,891.322 440.536,717.187 418.268,717.187 340,852.752 300,783.47 261.731,717.187 
			239.463,717.187 300,822.038 		"/>
		<polygon style="fill:#58595B;" points="360.925,891.322 561.998,891.322 461.461,717.187 450.326,736.472 528.595,872.037 
			372.058,872.037 		"/>
		<polygon style="fill:#58595B;" points="388.76,843.108 478.491,843.108 433.625,765.398 		"/>
		<polygon style="fill:#58595B;" points="845.993,513.023 946.53,687.158 957.663,667.873 879.395,532.308 1027.99,532.308 
			1035.931,532.308 1047.067,513.023 1027.99,513.023 		"/>
		<polygon style="fill:#58595B;" points="1019.23,561.235 929.498,561.235 974.365,638.945 		"/>
		<polygon style="fill:#58595B;" points="967.455,319.673 1027.99,424.525 1067.99,493.808 1168.526,319.673 1146.258,319.673 
			1067.99,455.238 1027.99,385.955 989.723,319.673 		"/>
		<polygon style="fill:#58595B;" points="1027.99,328.102 1067.99,397.383 1112.856,319.673 1027.99,319.673 1023.125,319.673 		"/>
		<polygon style="fill:#58595B;" points="845.993,493.808 1027.99,493.808 1047.067,493.808 1035.931,474.523 1027.99,474.523 
			879.395,474.523 957.663,338.958 946.53,319.673 		"/>
		<polygon style="fill:#58595B;" points="1019.23,445.595 974.365,367.885 929.498,445.595 		"/>
		<polygon style="fill:#58595B;" points="603.458,885.915 625.726,885.915 703.995,750.35 782.263,885.915 804.531,885.915 
			703.995,711.78 		"/>
		<polygon style="fill:#58595B;" points="703.995,808.205 659.13,885.915 748.861,885.915 		"/>
		<polygon style="fill:#58595B;" points="582.535,885.915 593.668,866.63 515.4,731.065 671.936,731.065 683.07,711.78 
			481.998,711.78 		"/>
		<polygon style="fill:#58595B;" points="655.235,759.992 565.503,759.992 610.37,837.702 		"/>
		<polygon style="fill:#58595B;" points="736.055,731.065 892.59,731.065 814.321,866.63 825.456,885.915 925.993,711.78 
			724.92,711.78 		"/>
		<polygon style="fill:#58595B;" points="752.755,759.992 797.621,837.702 842.486,759.992 		"/>
		<polygon style="fill:#58595B;" points="603.458,518.43 703.995,692.565 804.531,518.43 782.263,518.43 703.995,653.995 
			625.726,518.43 		"/>
		<polygon style="fill:#58595B;" points="703.995,596.14 748.861,518.43 659.13,518.43 		"/>
		<polygon style="fill:#58595B;" points="481.998,692.565 683.07,692.565 671.936,673.28 515.4,673.28 593.668,537.715 
			582.535,518.43 		"/>
		<polygon style="fill:#58595B;" points="655.235,644.352 610.37,566.642 565.503,644.352 		"/>
		<polygon style="fill:#58595B;" points="814.321,537.715 892.59,673.28 736.055,673.28 724.92,692.565 925.993,692.565 
			825.456,518.43 		"/>
		<polygon style="fill:#58595B;" points="752.755,644.352 842.486,644.352 797.621,566.642 		"/>
		<polygon style="fill:#58595B;" points="340,609.448 300,678.73 295.135,687.158 300,687.158 384.865,687.158 		"/>
		<polygon style="fill:#58595B;" points="372.058,532.308 528.595,532.308 450.326,667.873 461.461,687.158 561.998,513.023 
			360.925,513.023 		"/>
		<polygon style="fill:#58595B;" points="478.491,561.235 388.76,561.235 433.625,638.945 		"/>
		<polygon style="fill:#58595B;" points="340,493.808 440.536,319.673 418.268,319.673 340,455.238 300,385.955 261.731,319.673 
			239.463,319.673 300,424.525 		"/>
		<polygon style="fill:#58595B;" points="450.326,338.958 528.595,474.523 372.058,474.523 360.925,493.808 561.998,493.808 
			461.461,319.673 		"/>
		<polygon style="fill:#58595B;" points="388.76,445.595 478.491,445.595 433.625,367.885 		"/>
		<polygon style="fill:#58595B;" points="603.458,488.402 625.726,488.402 703.995,352.837 782.263,488.402 804.531,488.402 
			703.995,314.267 		"/>
		<polygon style="fill:#58595B;" points="703.995,410.692 659.13,488.402 748.861,488.402 		"/>
		<polygon style="fill:#58595B;" points="582.535,488.402 593.668,469.117 515.4,333.552 671.936,333.552 683.07,314.267 
			481.998,314.267 		"/>
		<polygon style="fill:#58595B;" points="655.235,362.478 565.503,362.478 610.37,440.188 		"/>
		<polygon style="fill:#58595B;" points="736.055,333.552 892.59,333.552 814.321,469.117 825.456,488.402 925.993,314.267 
			724.92,314.267 		"/>
		<polygon style="fill:#58595B;" points="752.755,362.478 797.621,440.188 842.486,362.478 		"/>
		<polygon style="fill:#58595B;" points="957.663,1860.413 879.395,1724.848 1027.99,1724.848 1035.931,1724.848 1047.067,1705.563 
			1027.99,1705.563 845.993,1705.563 946.53,1879.698 		"/>
		<polygon style="fill:#58595B;" points="1019.23,1753.777 929.498,1753.777 974.365,1831.487 		"/>
		<polygon style="fill:#58595B;" points="1023.125,1512.213 1027.99,1520.642 1067.99,1589.923 1112.856,1512.213 1027.99,1512.213 
					"/>
		<polygon style="fill:#58595B;" points="1019.23,1638.135 974.365,1560.427 929.498,1638.135 		"/>
		<polygon style="fill:#58595B;" points="804.531,1710.97 782.263,1710.97 703.995,1846.535 625.726,1710.97 603.458,1710.97 
			703.995,1885.105 		"/>
		<polygon style="fill:#58595B;" points="703.995,1788.68 748.861,1710.97 659.13,1710.97 		"/>
		<polygon style="fill:#58595B;" points="671.936,1865.82 515.4,1865.82 593.668,1730.255 582.535,1710.97 481.998,1885.105 
			683.07,1885.105 		"/>
		<polygon style="fill:#58595B;" points="655.235,1836.892 610.37,1759.183 565.503,1836.892 		"/>
		<polygon style="fill:#58595B;" points="825.456,1710.97 814.321,1730.255 892.59,1865.82 736.055,1865.82 724.92,1885.105 
			925.993,1885.105 		"/>
		<polygon style="fill:#58595B;" points="752.755,1836.892 842.486,1836.892 797.621,1759.183 		"/>
		<polygon style="fill:#58595B;" points="440.536,1879.698 340,1705.563 300,1774.845 239.463,1879.698 261.731,1879.698 
			300,1813.415 340,1744.133 418.268,1879.698 		"/>
		<polygon style="fill:#58595B;" points="300,1871.27 295.135,1879.698 300,1879.698 384.865,1879.698 340,1801.988 		"/>
		<polygon style="fill:#58595B;" points="561.998,1705.563 360.925,1705.563 372.058,1724.848 528.595,1724.848 450.326,1860.413 
			461.461,1879.698 		"/>
		<polygon style="fill:#58595B;" points="388.76,1753.777 433.625,1831.487 478.491,1753.777 		"/>
		<polygon style="fill:#58595B;" points="340,1686.348 440.536,1512.213 418.268,1512.213 340,1647.778 300,1578.497 
			261.731,1512.213 239.463,1512.213 300,1617.067 		"/>
		<polygon style="fill:#58595B;" points="461.461,1512.213 450.326,1531.498 528.595,1667.063 372.058,1667.063 360.925,1686.348 
			561.998,1686.348 		"/>
		<polygon style="fill:#58595B;" points="388.76,1638.135 478.491,1638.135 433.625,1560.427 		"/>
		<polygon style="fill:#58595B;" points="957.663,1462.9 879.395,1327.335 1027.99,1327.335 1035.931,1327.335 1047.067,1308.05 
			1027.99,1308.05 845.993,1308.05 946.53,1482.185 		"/>
		<polygon style="fill:#58595B;" points="1019.23,1356.263 929.498,1356.263 974.365,1433.972 		"/>
		<polygon style="fill:#58595B;" points="1023.125,1114.7 1027.99,1123.128 1067.99,1192.41 1112.856,1114.7 1027.99,1114.7 		"/>
		<polygon style="fill:#58595B;" points="1019.23,1240.622 974.365,1162.912 929.498,1240.622 		"/>
		<polygon style="fill:#58595B;" points="804.531,1680.942 703.995,1506.807 603.458,1680.942 625.726,1680.942 703.995,1545.377 
			782.263,1680.942 		"/>
		<polygon style="fill:#58595B;" points="703.995,1603.232 659.13,1680.942 748.861,1680.942 		"/>
		<polygon style="fill:#58595B;" points="593.668,1661.657 515.4,1526.092 671.936,1526.092 683.07,1506.807 481.998,1506.807 
			582.535,1680.942 		"/>
		<polygon style="fill:#58595B;" points="655.235,1555.02 565.503,1555.02 610.37,1632.73 		"/>
		<polygon style="fill:#58595B;" points="925.993,1506.807 724.92,1506.807 736.055,1526.092 892.59,1526.092 814.321,1661.657 
			825.456,1680.942 		"/>
		<polygon style="fill:#58595B;" points="752.755,1555.02 797.621,1632.73 842.486,1555.02 		"/>
		<polygon style="fill:#58595B;" points="804.531,1313.457 782.263,1313.457 703.995,1449.022 625.726,1313.457 603.458,1313.457 
			703.995,1487.592 		"/>
		<polygon style="fill:#58595B;" points="703.995,1391.167 748.861,1313.457 659.13,1313.457 		"/>
		<polygon style="fill:#58595B;" points="671.936,1468.307 515.4,1468.307 593.668,1332.742 582.535,1313.457 481.998,1487.592 
			683.07,1487.592 		"/>
		<polygon style="fill:#58595B;" points="655.235,1439.378 610.37,1361.67 565.503,1439.378 		"/>
		<polygon style="fill:#58595B;" points="825.456,1313.457 814.321,1332.742 892.59,1468.307 736.055,1468.307 724.92,1487.592 
			925.993,1487.592 		"/>
		<polygon style="fill:#58595B;" points="752.755,1439.378 842.486,1439.378 797.621,1361.67 		"/>
		<polygon style="fill:#58595B;" points="340,1404.475 300,1473.757 295.135,1482.185 300,1482.185 384.865,1482.185 		"/>
		<polygon style="fill:#58595B;" points="561.998,1308.05 360.925,1308.05 372.058,1327.335 528.595,1327.335 450.326,1462.9 
			461.461,1482.185 		"/>
		<polygon style="fill:#58595B;" points="433.625,1433.972 478.491,1356.263 388.76,1356.263 		"/>
		<polygon style="fill:#58595B;" points="340,1288.835 440.536,1114.7 418.268,1114.7 340,1250.265 300,1180.983 261.731,1114.7 
			239.463,1114.7 300,1219.553 		"/>
		<polygon style="fill:#58595B;" points="360.925,1288.835 561.998,1288.835 461.461,1114.7 450.326,1133.985 528.595,1269.55 
			372.058,1269.55 		"/>
		<polygon style="fill:#58595B;" points="388.76,1240.622 478.491,1240.622 433.625,1162.912 		"/>
		<polygon style="fill:#58595B;" points="804.531,1283.428 703.995,1109.293 603.458,1283.428 625.726,1283.428 703.995,1147.863 
			782.263,1283.428 		"/>
		<polygon style="fill:#58595B;" points="703.995,1205.718 659.13,1283.428 748.861,1283.428 		"/>
		<polygon style="fill:#58595B;" points="582.535,1283.428 593.668,1264.143 515.4,1128.578 671.936,1128.578 683.07,1109.293 
			481.998,1109.293 		"/>
		<polygon style="fill:#58595B;" points="655.235,1157.507 565.503,1157.507 610.37,1235.215 		"/>
		<polygon style="fill:#58595B;" points="925.993,1109.293 724.92,1109.293 736.055,1128.578 892.59,1128.578 814.321,1264.143 
			825.456,1283.428 		"/>
		<polygon style="fill:#58595B;" points="752.755,1157.507 797.621,1235.215 842.486,1157.507 		"/>
		<polygon style="fill:#58595B;" points="989.723,1909.727 967.455,1909.727 1019.573,2000 1027.99,2000 1041.841,2000 
			1027.99,1976.01 		"/>
		<polygon style="fill:#58595B;" points="946.53,1909.727 894.41,2000 916.678,2000 957.663,1929.012 		"/>
		<polygon style="fill:#58595B;" points="950.081,2000 998.648,2000 974.365,1957.94 		"/>
		<polygon style="fill:#58595B;" points="418.268,1909.727 366.15,2000 388.417,2000 440.536,1909.727 		"/>
		<polygon style="fill:#58595B;" points="300,1909.727 295.135,1909.727 300,1918.155 340,1987.437 384.865,1909.727 		"/>
		<polygon style="fill:#58595B;" points="450.326,1929.012 491.311,2000 513.58,2000 461.461,1909.727 		"/>
		<polygon style="fill:#58595B;" points="409.341,2000 457.91,2000 433.625,1957.94 		"/>
		<polygon style="fill:#58595B;" points="648.755,2000 671.023,2000 703.995,1942.89 736.968,2000 759.236,2000 703.995,1904.32 		
			"/>
		<polygon style="fill:#58595B;" points="671.936,1923.605 683.07,1904.32 481.998,1904.32 537.238,2000 559.506,2000 
			515.4,1923.605 		"/>
		<polygon style="fill:#58595B;" points="565.503,1952.533 592.908,2000 627.83,2000 655.235,1952.533 		"/>
		<polygon style="fill:#58595B;" points="724.92,1904.32 736.055,1923.605 892.59,1923.605 848.485,2000 870.751,2000 
			925.993,1904.32 		"/>
		<polygon style="fill:#58595B;" points="780.16,2000 815.081,2000 842.486,1952.533 752.755,1952.533 		"/>
		<polygon style="fill:#58595B;" points="118.001,115.51 218.538,289.645 229.673,270.36 151.405,134.795 300,134.795 
			307.941,134.795 319.075,115.51 300,115.51 		"/>
		<polygon style="fill:#58595B;" points="291.24,163.722 201.508,163.722 246.373,241.432 		"/>
		<polygon style="fill:#58595B;" points="300,96.293 319.075,96.293 307.941,77.01 300,77.01 151.405,77.01 195.867,0 173.598,0 
			118.001,96.293 		"/>
		<polygon style="fill:#58595B;" points="263.48,0 229.268,0 201.508,48.082 291.24,48.082 		"/>
		<polygon style="fill:#58595B;" points="54.273,120.917 0,214.92 0,253.49 76.541,120.917 		"/>
		<polygon style="fill:#58595B;" points="0,120.917 0,157.065 20.87,120.917 		"/>
		<polygon style="fill:#58595B;" points="97.465,120.917 86.331,140.202 164.6,275.767 8.063,275.767 0,289.732 0,295.052 
			198.001,295.052 		"/>
		<polygon style="fill:#58595B;" points="24.765,246.838 114.496,246.838 69.63,169.128 		"/>
		<polygon style="fill:#58595B;" points="76.541,90.887 24.067,0 1.798,0 54.273,90.887 		"/>
		<polygon style="fill:#58595B;" points="0,54.738 0,90.887 20.87,90.887 		"/>
		<polygon style="fill:#58595B;" points="97.465,90.887 149.94,0 127.671,0 86.331,71.603 		"/>
		<polygon style="fill:#58595B;" points="94.268,0 44.991,0 69.63,42.675 		"/>
		<polygon style="fill:#58595B;" points="239.463,1084.672 261.731,1084.672 300,1018.388 340,949.107 418.268,1084.672 
			440.536,1084.672 340,910.537 300,979.818 		"/>
		<polygon style="fill:#58595B;" points="218.538,1084.672 229.673,1065.387 151.405,929.822 300,929.822 307.941,929.822 
			319.075,910.537 300,910.537 118.001,910.537 		"/>
		<polygon style="fill:#58595B;" points="246.373,1036.458 291.24,958.75 201.508,958.75 		"/>
		<polygon style="fill:#58595B;" points="295.135,717.187 300,725.615 340,794.897 384.865,717.187 300,717.187 		"/>
		<polygon style="fill:#58595B;" points="300,891.322 319.075,891.322 307.941,872.037 300,872.037 151.405,872.037 
			229.673,736.472 218.538,717.187 118.001,891.322 		"/>
		<polygon style="fill:#58595B;" points="291.24,843.108 246.373,765.398 201.508,843.108 		"/>
		<polygon style="fill:#58595B;" points="54.273,915.943 0,1009.947 0,1048.517 76.541,915.943 		"/>
		<polygon style="fill:#58595B;" points="0,915.943 0,952.092 20.87,915.943 		"/>
		<polygon style="fill:#58595B;" points="97.465,915.943 86.331,935.228 164.6,1070.793 8.063,1070.793 0,1084.76 0,1090.078 
			198.001,1090.078 		"/>
		<polygon style="fill:#58595B;" points="24.765,1041.865 114.496,1041.865 69.63,964.155 		"/>
		<polygon style="fill:#58595B;" points="239.463,687.158 261.731,687.158 300,620.875 340,551.593 418.268,687.158 
			440.536,687.158 340,513.023 300,582.305 		"/>
		<polygon style="fill:#58595B;" points="218.538,687.158 229.673,667.873 151.405,532.308 300,532.308 307.941,532.308 
			319.075,513.023 300,513.023 118.001,513.023 		"/>
		<polygon style="fill:#58595B;" points="246.373,638.945 291.24,561.235 201.508,561.235 		"/>
		<polygon style="fill:#58595B;" points="300,328.102 340,397.383 384.865,319.673 300,319.673 295.135,319.673 		"/>
		<polygon style="fill:#58595B;" points="300,493.808 319.075,493.808 307.941,474.523 300,474.523 151.405,474.523 
			229.673,338.958 218.538,319.673 118.001,493.808 		"/>
		<polygon style="fill:#58595B;" points="291.24,445.595 246.373,367.885 201.508,445.595 		"/>
		<polygon style="fill:#58595B;" points="76.541,885.915 0,753.342 0,791.912 54.273,885.915 		"/>
		<polygon style="fill:#58595B;" points="0,849.765 0,885.915 20.87,885.915 		"/>
		<polygon style="fill:#58595B;" points="164.6,731.065 86.331,866.63 97.465,885.915 198.001,711.78 0,711.78 0,717.098 
			8.063,731.065 		"/>
		<polygon style="fill:#58595B;" points="69.63,837.702 114.496,759.992 24.765,759.992 		"/>
		<polygon style="fill:#58595B;" points="54.273,518.43 0,612.433 0,651.003 76.541,518.43 		"/>
		<polygon style="fill:#58595B;" points="0,518.43 0,554.578 20.87,518.43 		"/>
		<polygon style="fill:#58595B;" points="97.465,518.43 86.331,537.715 164.6,673.28 8.063,673.28 0,687.245 0,692.565 
			198.001,692.565 		"/>
		<polygon style="fill:#58595B;" points="24.765,644.352 114.496,644.352 69.63,566.642 		"/>
		<polygon style="fill:#58595B;" points="76.541,488.402 0,355.828 0,394.398 54.273,488.402 		"/>
		<polygon style="fill:#58595B;" points="0,452.252 0,488.402 20.87,488.402 		"/>
		<polygon style="fill:#58595B;" points="164.6,333.552 86.331,469.117 97.465,488.402 198.001,314.267 0,314.267 0,319.585 
			8.063,333.552 		"/>
		<polygon style="fill:#58595B;" points="69.63,440.188 114.496,362.478 24.765,362.478 		"/>
		<polygon style="fill:#58595B;" points="218.538,1879.698 229.673,1860.413 151.405,1724.848 300,1724.848 307.941,1724.848 
			319.075,1705.563 300,1705.563 118.001,1705.563 		"/>
		<polygon style="fill:#58595B;" points="291.24,1753.777 201.508,1753.777 246.373,1831.487 		"/>
		<polygon style="fill:#58595B;" points="295.135,1512.213 300,1520.642 340,1589.923 384.865,1512.213 300,1512.213 		"/>
		<polygon style="fill:#58595B;" points="300,1686.348 319.075,1686.348 307.941,1667.063 300,1667.063 151.405,1667.063 
			229.673,1531.498 218.538,1512.213 118.001,1686.348 		"/>
		<polygon style="fill:#58595B;" points="291.24,1638.135 246.373,1560.427 201.508,1638.135 		"/>
		<polygon style="fill:#58595B;" points="54.273,1710.97 0,1804.973 0,1843.543 76.541,1710.97 		"/>
		<polygon style="fill:#58595B;" points="0,1710.97 0,1747.118 20.87,1710.97 		"/>
		<polygon style="fill:#58595B;" points="97.465,1710.97 86.331,1730.255 164.6,1865.82 8.063,1865.82 0,1879.787 0,1885.105 
			198.001,1885.105 		"/>
		<polygon style="fill:#58595B;" points="24.765,1836.892 114.496,1836.892 69.63,1759.183 		"/>
		<polygon style="fill:#58595B;" points="239.463,1482.185 261.731,1482.185 300,1415.902 340,1346.62 418.268,1482.185 
			440.536,1482.185 340,1308.05 300,1377.332 		"/>
		<polygon style="fill:#58595B;" points="218.538,1482.185 229.673,1462.9 151.405,1327.335 300,1327.335 307.941,1327.335 
			319.075,1308.05 300,1308.05 118.001,1308.05 		"/>
		<polygon style="fill:#58595B;" points="246.373,1433.972 291.24,1356.263 201.508,1356.263 		"/>
		<polygon style="fill:#58595B;" points="295.135,1114.7 300,1123.128 340,1192.41 384.865,1114.7 300,1114.7 		"/>
		<polygon style="fill:#58595B;" points="300,1288.835 319.075,1288.835 307.941,1269.55 300,1269.55 151.405,1269.55 
			229.673,1133.985 218.538,1114.7 118.001,1288.835 		"/>
		<polygon style="fill:#58595B;" points="291.24,1240.622 246.373,1162.912 201.508,1240.622 		"/>
		<polygon style="fill:#58595B;" points="76.541,1680.942 0,1548.368 0,1586.938 54.273,1680.942 		"/>
		<polygon style="fill:#58595B;" points="0,1644.793 0,1680.942 20.87,1680.942 		"/>
		<polygon style="fill:#58595B;" points="164.6,1526.092 86.331,1661.657 97.465,1680.942 198.001,1506.807 0,1506.807 0,1512.125 
			8.063,1526.092 		"/>
		<polygon style="fill:#58595B;" points="69.63,1632.73 114.496,1555.02 24.765,1555.02 		"/>
		<polygon style="fill:#58595B;" points="54.273,1313.457 0,1407.46 0,1446.03 76.541,1313.457 		"/>
		<polygon style="fill:#58595B;" points="0,1313.457 0,1349.605 20.87,1313.457 		"/>
		<polygon style="fill:#58595B;" points="97.465,1313.457 86.331,1332.742 164.6,1468.307 8.063,1468.307 0,1482.273 0,1487.592 
			198.001,1487.592 		"/>
		<polygon style="fill:#58595B;" points="24.765,1439.378 114.496,1439.378 69.63,1361.67 		"/>
		<polygon style="fill:#58595B;" points="76.541,1283.428 0,1150.855 0,1189.425 54.273,1283.428 		"/>
		<polygon style="fill:#58595B;" points="0,1247.28 0,1283.428 20.87,1283.428 		"/>
		<polygon style="fill:#58595B;" points="164.6,1128.578 86.331,1264.143 97.465,1283.428 198.001,1109.293 0,1109.293 0,1114.612 
			8.063,1128.578 		"/>
		<polygon style="fill:#58595B;" points="69.63,1235.215 114.496,1157.507 24.765,1157.507 		"/>
		<polygon style="fill:#58595B;" points="261.731,1909.727 239.463,1909.727 291.583,2000 300,2000 313.85,2000 300,1976.01 		"/>
		<polygon style="fill:#58595B;" points="218.538,1909.727 166.42,2000 188.688,2000 229.673,1929.012 		"/>
		<polygon style="fill:#58595B;" points="222.09,2000 270.658,2000 246.373,1957.94 		"/>
		<polygon style="fill:#58595B;" points="0,1984.452 8.976,2000 31.245,2000 0,1945.882 		"/>
		<polygon style="fill:#58595B;" points="0,1904.32 0,1909.638 8.063,1923.605 164.6,1923.605 120.493,2000 142.761,2000 
			198.001,1904.32 		"/>
		<polygon style="fill:#58595B;" points="52.17,2000 87.091,2000 114.496,1952.533 24.765,1952.533 		"/>
	</g>
</g>
</svg>
